<?xml version="1.0" standalone="no"?>
<!DOCTYPE svg PUBLIC "-//W3C//DTD SVG 20010904//EN" "http://www.w3.org/TR/2001/REC-SVG-20010904/DTD/svg10.dtd">
<svg version="1.0" xmlns="http://www.w3.org/2000/svg"
    width="1536.000000pt" height="1024.000000pt" viewBox="0 0 1536.000000 1024.000000"
    preserveAspectRatio="xMidYMid meet">

    <g transform="translate(0.000000,1024.000000) scale(0.100000,-0.100000)"
        fill="#000000" stroke="none">
        <path
            d="M5625 7384 c-176 -22 -321 -89 -439 -202 -115 -112 -162 -216 -153
-337 7 -100 36 -160 139 -289 51 -65 95 -133 107 -164 56 -145 -3 -393 -136
-580 -119 -167 -287 -294 -623 -472 -231 -122 -315 -178 -429 -285 -139 -131
-236 -277 -298 -445 -158 -433 -3 -825 418 -1058 199 -109 488 -156 746 -121
90 12 253 64 345 110 140 70 296 209 414 369 135 185 248 250 432 250 108 0
186 -20 292 -76 189 -99 298 -227 392 -459 96 -234 272 -347 539 -346 171 1
287 40 397 135 68 58 93 89 125 152 82 162 49 335 -95 504 -71 83 -150 144
-212 162 -28 9 -147 13 -381 13 -374 2 -439 9 -637 75 -163 55 -260 113 -376
224 -268 258 -316 540 -122 719 113 105 202 134 583 192 187 29 296 75 396
169 68 64 111 131 145 226 54 148 121 231 252 308 118 70 193 92 468 137 278
46 444 115 568 236 83 81 123 160 139 275 41 288 -163 503 -526 554 -226 32
-428 -26 -565 -163 -73 -73 -113 -150 -140 -272 -33 -145 -50 -196 -88 -269
-44 -85 -161 -210 -252 -271 -90 -60 -247 -133 -392 -184 -293 -101 -367 -171
-427 -402 -16 -63 -38 -134 -49 -159 -29 -66 -104 -162 -164 -208 -245 -186
-533 -153 -617 72 -59 158 16 413 172 581 94 103 157 149 327 240 181 97 242
138 303 204 251 268 71 730 -324 830 -76 19 -201 31 -254 25z" />
        <path
            d="M9240 7289 c-25 -5 -73 -23 -107 -39 -283 -139 -338 -488 -110 -695
95 -87 189 -128 318 -140 99 -9 179 6 357 65 132 44 160 50 234 50 178 0 268
-93 268 -277 0 -158 -125 -625 -336 -1262 -114 -343 -217 -494 -502 -738 -73
-63 -153 -140 -178 -171 -100 -127 -151 -288 -139 -442 29 -379 351 -607 764
-539 330 53 592 323 591 609 -1 143 -40 253 -148 413 -84 124 -113 180 -144
277 -21 67 -23 94 -23 260 0 206 3 227 86 549 81 316 212 686 316 896 97 193
223 349 326 401 97 50 181 43 357 -26 294 -116 537 -82 717 100 142 144 169
337 68 495 -46 72 -91 114 -159 146 -156 74 -306 76 -526 8 -219 -68 -259 -78
-390 -103 -180 -35 -206 -37 -363 -37 -244 1 -385 25 -755 130 -117 33 -241
65 -275 71 -73 12 -184 11 -247 -1z" />
    </g>
</svg>
